<svg width="290" height="58" viewBox="0 0 290 58" fill="none" xmlns="http://www.w3.org/2000/svg">
<g filter="url(#filter0_ii_573_179)">
<rect width="290" height="58" rx="15" fill="#269E96"/>
<path d="M75.2643 42.925C73.6476 41.3583 72.3893 39.3583 71.4893 36.925C70.6059 34.4917 70.1643 31.8833 70.1643 29.1C70.1643 26.25 70.6309 23.575 71.5643 21.075C72.4976 18.5583 73.8559 16.5 75.6393 14.9H79.1643V15.225C77.3309 16.975 75.9309 19.075 74.9643 21.525C74.0143 23.975 73.5393 26.5 73.5393 29.1C73.5393 31.6333 73.9893 34.0833 74.8893 36.45C75.8059 38.8 77.1059 40.8417 78.7893 42.575V42.925H75.2643ZM83.998 28.35C82.3314 27.4833 81.498 26.1417 81.498 24.325C81.498 23.425 81.723 22.6083 82.173 21.875C82.6397 21.125 83.3314 20.5333 84.248 20.1C85.1814 19.65 86.3147 19.425 87.648 19.425C88.9814 19.425 90.1064 19.65 91.023 20.1C91.9564 20.5333 92.648 21.125 93.098 21.875C93.5647 22.6083 93.798 23.425 93.798 24.325C93.798 25.2417 93.573 26.05 93.123 26.75C92.673 27.4333 92.073 27.9667 91.323 28.35C92.2397 28.75 92.9564 29.3333 93.473 30.1C93.9897 30.8667 94.248 31.775 94.248 32.825C94.248 33.9583 93.9564 34.95 93.373 35.8C92.8064 36.6333 92.023 37.275 91.023 37.725C90.023 38.175 88.898 38.4 87.648 38.4C86.398 38.4 85.273 38.175 84.273 37.725C83.2897 37.275 82.5064 36.6333 81.923 35.8C81.3564 34.95 81.073 33.9583 81.073 32.825C81.073 31.775 81.3314 30.8667 81.848 30.1C82.3647 29.3167 83.0814 28.7333 83.998 28.35ZM90.398 24.825C90.398 24.0083 90.148 23.375 89.648 22.925C89.1647 22.475 88.498 22.25 87.648 22.25C86.8147 22.25 86.148 22.475 85.648 22.925C85.1647 23.375 84.923 24.0167 84.923 24.85C84.923 25.6 85.173 26.2 85.673 26.65C86.1897 27.1 86.848 27.325 87.648 27.325C88.448 27.325 89.1064 27.1 89.623 26.65C90.1397 26.1833 90.398 25.575 90.398 24.825ZM87.648 29.875C86.698 29.875 85.923 30.1167 85.323 30.6C84.7397 31.0833 84.448 31.775 84.448 32.675C84.448 33.5083 84.7314 34.1917 85.298 34.725C85.8814 35.2417 86.6647 35.5 87.648 35.5C88.6314 35.5 89.4064 35.2333 89.973 34.7C90.5397 34.1667 90.823 33.4917 90.823 32.675C90.823 31.7917 90.5314 31.1083 89.948 30.625C89.3647 30.125 88.598 29.875 87.648 29.875ZM109.263 22.8H101.163V27.075C101.513 26.6417 102.013 26.2917 102.663 26.025C103.313 25.7417 104.004 25.6 104.738 25.6C106.071 25.6 107.163 25.8917 108.013 26.475C108.863 27.0583 109.479 27.8083 109.863 28.725C110.246 29.625 110.438 30.5917 110.438 31.625C110.438 33.5417 109.888 35.0833 108.788 36.25C107.704 37.4167 106.154 38 104.138 38C102.238 38 100.721 37.525 99.5875 36.575C98.4542 35.625 97.8125 34.3833 97.6625 32.85H101.063C101.213 33.5167 101.546 34.05 102.063 34.45C102.596 34.85 103.271 35.05 104.088 35.05C105.071 35.05 105.813 34.7417 106.313 34.125C106.813 33.5083 107.063 32.6917 107.063 31.675C107.063 30.6417 106.804 29.8583 106.288 29.325C105.788 28.775 105.046 28.5 104.063 28.5C103.363 28.5 102.779 28.675 102.313 29.025C101.846 29.375 101.513 29.8417 101.313 30.425H97.9625V19.725H109.263V22.8ZM125.351 22.8H117.251V27.075C117.601 26.6417 118.101 26.2917 118.751 26.025C119.401 25.7417 120.093 25.6 120.826 25.6C122.16 25.6 123.251 25.8917 124.101 26.475C124.951 27.0583 125.568 27.8083 125.951 28.725C126.335 29.625 126.526 30.5917 126.526 31.625C126.526 33.5417 125.976 35.0833 124.876 36.25C123.793 37.4167 122.243 38 120.226 38C118.326 38 116.81 37.525 115.676 36.575C114.543 35.625 113.901 34.3833 113.751 32.85H117.151C117.301 33.5167 117.635 34.05 118.151 34.45C118.685 34.85 119.36 35.05 120.176 35.05C121.16 35.05 121.901 34.7417 122.401 34.125C122.901 33.5083 123.151 32.6917 123.151 31.675C123.151 30.6417 122.893 29.8583 122.376 29.325C121.876 28.775 121.135 28.5 120.151 28.5C119.451 28.5 118.868 28.675 118.401 29.025C117.935 29.375 117.601 29.8417 117.401 30.425H114.051V19.725H125.351V22.8ZM128.69 42.925V42.575C130.374 40.8417 131.665 38.8 132.565 36.45C133.482 34.0833 133.94 31.6333 133.94 29.1C133.94 26.5 133.457 23.975 132.49 21.525C131.54 19.075 130.149 16.975 128.315 15.225V14.9H131.84C133.624 16.5 134.982 18.5583 135.915 21.075C136.849 23.575 137.315 26.25 137.315 29.1C137.315 31.8833 136.865 34.4917 135.965 36.925C135.082 39.3583 133.832 41.3583 132.215 42.925H128.69ZM159.531 22.8H151.431V27.075C151.781 26.6417 152.281 26.2917 152.931 26.025C153.581 25.7417 154.273 25.6 155.006 25.6C156.339 25.6 157.431 25.8917 158.281 26.475C159.131 27.0583 159.748 27.8083 160.131 28.725C160.514 29.625 160.706 30.5917 160.706 31.625C160.706 33.5417 160.156 35.0833 159.056 36.25C157.973 37.4167 156.423 38 154.406 38C152.506 38 150.989 37.525 149.856 36.575C148.723 35.625 148.081 34.3833 147.931 32.85H151.331C151.481 33.5167 151.814 34.05 152.331 34.45C152.864 34.85 153.539 35.05 154.356 35.05C155.339 35.05 156.081 34.7417 156.581 34.125C157.081 33.5083 157.331 32.6917 157.331 31.675C157.331 30.6417 157.073 29.8583 156.556 29.325C156.056 28.775 155.314 28.5 154.331 28.5C153.631 28.5 153.048 28.675 152.581 29.025C152.114 29.375 151.781 29.8417 151.581 30.425H148.231V19.725H159.531V22.8ZM166.42 28.35C164.753 27.4833 163.92 26.1417 163.92 24.325C163.92 23.425 164.145 22.6083 164.595 21.875C165.062 21.125 165.753 20.5333 166.67 20.1C167.603 19.65 168.737 19.425 170.07 19.425C171.403 19.425 172.528 19.65 173.445 20.1C174.378 20.5333 175.07 21.125 175.52 21.875C175.987 22.6083 176.22 23.425 176.22 24.325C176.22 25.2417 175.995 26.05 175.545 26.75C175.095 27.4333 174.495 27.9667 173.745 28.35C174.662 28.75 175.378 29.3333 175.895 30.1C176.412 30.8667 176.67 31.775 176.67 32.825C176.67 33.9583 176.378 34.95 175.795 35.8C175.228 36.6333 174.445 37.275 173.445 37.725C172.445 38.175 171.32 38.4 170.07 38.4C168.82 38.4 167.695 38.175 166.695 37.725C165.712 37.275 164.928 36.6333 164.345 35.8C163.778 34.95 163.495 33.9583 163.495 32.825C163.495 31.775 163.753 30.8667 164.27 30.1C164.787 29.3167 165.503 28.7333 166.42 28.35ZM172.82 24.825C172.82 24.0083 172.57 23.375 172.07 22.925C171.587 22.475 170.92 22.25 170.07 22.25C169.237 22.25 168.57 22.475 168.07 22.925C167.587 23.375 167.345 24.0167 167.345 24.85C167.345 25.6 167.595 26.2 168.095 26.65C168.612 27.1 169.27 27.325 170.07 27.325C170.87 27.325 171.528 27.1 172.045 26.65C172.562 26.1833 172.82 25.575 172.82 24.825ZM170.07 29.875C169.12 29.875 168.345 30.1167 167.745 30.6C167.162 31.0833 166.87 31.775 166.87 32.675C166.87 33.5083 167.153 34.1917 167.72 34.725C168.303 35.2417 169.087 35.5 170.07 35.5C171.053 35.5 171.828 35.2333 172.395 34.7C172.962 34.1667 173.245 33.4917 173.245 32.675C173.245 31.7917 172.953 31.1083 172.37 30.625C171.787 30.125 171.02 29.875 170.07 29.875ZM191.684 22.8H183.584V27.075C183.934 26.6417 184.434 26.2917 185.084 26.025C185.734 25.7417 186.426 25.6 187.159 25.6C188.493 25.6 189.584 25.8917 190.434 26.475C191.284 27.0583 191.901 27.8083 192.284 28.725C192.668 29.625 192.859 30.5917 192.859 31.625C192.859 33.5417 192.309 35.0833 191.209 36.25C190.126 37.4167 188.576 38 186.559 38C184.659 38 183.143 37.525 182.009 36.575C180.876 35.625 180.234 34.3833 180.084 32.85H183.484C183.634 33.5167 183.968 34.05 184.484 34.45C185.018 34.85 185.693 35.05 186.509 35.05C187.493 35.05 188.234 34.7417 188.734 34.125C189.234 33.5083 189.484 32.6917 189.484 31.675C189.484 30.6417 189.226 29.8583 188.709 29.325C188.209 28.775 187.468 28.5 186.484 28.5C185.784 28.5 185.201 28.675 184.734 29.025C184.268 29.375 183.934 29.8417 183.734 30.425H180.384V19.725H191.684V22.8ZM206.573 27.6V30.55H195.973V27.6H206.573ZM209.673 23V19.775H215.698V38H212.098V23H209.673ZM223.206 32.875C223.339 33.6083 223.639 34.175 224.106 34.575C224.589 34.9583 225.231 35.15 226.031 35.15C227.064 35.15 227.814 34.725 228.281 33.875C228.748 33.0083 228.981 31.5583 228.981 29.525C228.598 30.0583 228.056 30.475 227.356 30.775C226.673 31.075 225.931 31.225 225.131 31.225C224.064 31.225 223.098 31.0083 222.231 30.575C221.381 30.125 220.706 29.4667 220.206 28.6C219.706 27.7167 219.456 26.65 219.456 25.4C219.456 23.55 220.006 22.0833 221.106 21C222.206 19.9 223.706 19.35 225.606 19.35C227.973 19.35 229.639 20.1083 230.606 21.625C231.589 23.1417 232.081 25.425 232.081 28.475C232.081 30.6417 231.889 32.4167 231.506 33.8C231.139 35.1833 230.498 36.2333 229.581 36.95C228.681 37.6667 227.448 38.025 225.881 38.025C224.648 38.025 223.598 37.7917 222.731 37.325C221.864 36.8417 221.198 36.2167 220.731 35.45C220.281 34.6667 220.023 33.8083 219.956 32.875H223.206ZM225.856 28.375C226.723 28.375 227.406 28.1083 227.906 27.575C228.406 27.0417 228.656 26.325 228.656 25.425C228.656 24.4417 228.389 23.6833 227.856 23.15C227.339 22.6 226.631 22.325 225.731 22.325C224.831 22.325 224.114 22.6083 223.581 23.175C223.064 23.725 222.806 24.4583 222.806 25.375C222.806 26.2583 223.056 26.9833 223.556 27.55C224.073 28.1 224.839 28.375 225.856 28.375ZM234.855 24.575C234.939 22.9083 235.522 21.625 236.605 20.725C237.705 19.8083 239.147 19.35 240.93 19.35C242.147 19.35 243.189 19.5667 244.055 20C244.922 20.4167 245.572 20.9917 246.005 21.725C246.455 22.4417 246.68 23.2583 246.68 24.175C246.68 25.225 246.405 26.1167 245.855 26.85C245.322 27.5667 244.68 28.05 243.93 28.3V28.4C244.897 28.7 245.647 29.2333 246.18 30C246.73 30.7667 247.005 31.75 247.005 32.95C247.005 33.95 246.772 34.8417 246.305 35.625C245.855 36.4083 245.18 37.025 244.28 37.475C243.397 37.9083 242.33 38.125 241.08 38.125C239.197 38.125 237.664 37.65 236.48 36.7C235.297 35.75 234.672 34.35 234.605 32.5H238.005C238.039 33.3167 238.314 33.975 238.83 34.475C239.364 34.9583 240.089 35.2 241.005 35.2C241.855 35.2 242.505 34.9667 242.955 34.5C243.422 34.0167 243.655 33.4 243.655 32.65C243.655 31.65 243.339 30.9333 242.705 30.5C242.072 30.0667 241.089 29.85 239.755 29.85H239.03V26.975H239.755C242.122 26.975 243.305 26.1833 243.305 24.6C243.305 23.8833 243.089 23.325 242.655 22.925C242.239 22.525 241.63 22.325 240.83 22.325C240.047 22.325 239.439 22.5417 239.005 22.975C238.589 23.3917 238.347 23.925 238.28 24.575H234.855ZM252.821 28.35C251.155 27.4833 250.321 26.1417 250.321 24.325C250.321 23.425 250.546 22.6083 250.996 21.875C251.463 21.125 252.155 20.5333 253.071 20.1C254.005 19.65 255.138 19.425 256.471 19.425C257.805 19.425 258.93 19.65 259.846 20.1C260.78 20.5333 261.471 21.125 261.921 21.875C262.388 22.6083 262.621 23.425 262.621 24.325C262.621 25.2417 262.396 26.05 261.946 26.75C261.496 27.4333 260.896 27.9667 260.146 28.35C261.063 28.75 261.78 29.3333 262.296 30.1C262.813 30.8667 263.071 31.775 263.071 32.825C263.071 33.9583 262.78 34.95 262.196 35.8C261.63 36.6333 260.846 37.275 259.846 37.725C258.846 38.175 257.721 38.4 256.471 38.4C255.221 38.4 254.096 38.175 253.096 37.725C252.113 37.275 251.33 36.6333 250.746 35.8C250.18 34.95 249.896 33.9583 249.896 32.825C249.896 31.775 250.155 30.8667 250.671 30.1C251.188 29.3167 251.905 28.7333 252.821 28.35ZM259.221 24.825C259.221 24.0083 258.971 23.375 258.471 22.925C257.988 22.475 257.321 22.25 256.471 22.25C255.638 22.25 254.971 22.475 254.471 22.925C253.988 23.375 253.746 24.0167 253.746 24.85C253.746 25.6 253.996 26.2 254.496 26.65C255.013 27.1 255.671 27.325 256.471 27.325C257.271 27.325 257.93 27.1 258.446 26.65C258.963 26.1833 259.221 25.575 259.221 24.825ZM256.471 29.875C255.521 29.875 254.746 30.1167 254.146 30.6C253.563 31.0833 253.271 31.775 253.271 32.675C253.271 33.5083 253.555 34.1917 254.121 34.725C254.705 35.2417 255.488 35.5 256.471 35.5C257.455 35.5 258.23 35.2333 258.796 34.7C259.363 34.1667 259.646 33.4917 259.646 32.675C259.646 31.7917 259.355 31.1083 258.771 30.625C258.188 30.125 257.421 29.875 256.471 29.875Z" fill="white"/>
<path d="M38.3015 32.103C40.263 34.0714 42.6363 35.5911 45.2549 36.5555L48.7974 33.7668C48.9024 33.6953 49.0269 33.657 49.1544 33.657C49.2819 33.657 49.4065 33.6953 49.5115 33.7668L56.089 37.9591C56.3387 38.1076 56.5501 38.3115 56.7065 38.5547C56.8628 38.7979 56.9599 39.0738 56.99 39.3605C57.02 39.6471 56.9823 39.9368 56.8798 40.2066C56.7772 40.4764 56.6127 40.7189 56.3991 40.915L53.3171 43.9267C52.8757 44.3581 52.3332 44.6747 51.738 44.8483C51.1429 45.0218 50.5135 45.0469 49.9061 44.9213C43.8475 43.6835 38.2631 40.7844 33.7912 36.5555C29.4185 32.2844 26.3926 26.85 25.0806 20.9113C24.951 20.3198 24.9781 19.7052 25.1591 19.127C25.3402 18.5489 25.6692 18.0268 26.1142 17.6114L29.309 14.5625C29.5067 14.3616 29.7478 14.2074 30.0143 14.1117C30.2807 14.016 30.5656 13.9811 30.8476 14.0097C31.1296 14.0383 31.4014 14.1297 31.6427 14.2769C31.8839 14.4242 32.0884 14.6235 32.2407 14.86L36.6195 21.2831C36.695 21.384 36.7358 21.5062 36.7358 21.6317C36.7358 21.7572 36.695 21.8794 36.6195 21.9803L33.7348 25.4103C34.736 27.9488 36.296 30.235 38.3015 32.103Z" fill="white"/>
</g>
<defs>
<filter id="filter0_ii_573_179" x="-2" y="-2" width="296" height="64" filterUnits="userSpaceOnUse" color-interpolation-filters="sRGB">
<feFlood flood-opacity="0" result="BackgroundImageFix"/>
<feBlend mode="normal" in="SourceGraphic" in2="BackgroundImageFix" result="shape"/>
<feColorMatrix in="SourceAlpha" type="matrix" values="0 0 0 0 0 0 0 0 0 0 0 0 0 0 0 0 0 0 127 0" result="hardAlpha"/>
<feOffset dx="4" dy="4"/>
<feGaussianBlur stdDeviation="2"/>
<feComposite in2="hardAlpha" operator="arithmetic" k2="-1" k3="1"/>
<feColorMatrix type="matrix" values="0 0 0 0 1 0 0 0 0 1 0 0 0 0 1 0 0 0 0.25 0"/>
<feBlend mode="normal" in2="shape" result="effect1_innerShadow_573_179"/>
<feColorMatrix in="SourceAlpha" type="matrix" values="0 0 0 0 0 0 0 0 0 0 0 0 0 0 0 0 0 0 127 0" result="hardAlpha"/>
<feOffset dx="-2" dy="-2"/>
<feGaussianBlur stdDeviation="2"/>
<feComposite in2="hardAlpha" operator="arithmetic" k2="-1" k3="1"/>
<feColorMatrix type="matrix" values="0 0 0 0 0 0 0 0 0 0 0 0 0 0 0 0 0 0 0.25 0"/>
<feBlend mode="normal" in2="effect1_innerShadow_573_179" result="effect2_innerShadow_573_179"/>
</filter>
</defs>
</svg>
