<svg width="280" height="58" viewBox="0 0 280 58" fill="none" xmlns="http://www.w3.org/2000/svg">
<rect x="1.5" y="1.5" width="277" height="55" rx="18.5" stroke="#146D70" stroke-width="3"/>
<path d="M70.2643 42.925C68.6476 41.3583 67.3893 39.3583 66.4893 36.925C65.6059 34.4917 65.1643 31.8833 65.1643 29.1C65.1643 26.25 65.6309 23.575 66.5643 21.075C67.4976 18.5583 68.8559 16.5 70.6393 14.9H74.1643V15.225C72.3309 16.975 70.9309 19.075 69.9643 21.525C69.0143 23.975 68.5393 26.5 68.5393 29.1C68.5393 31.6333 68.9893 34.0833 69.8893 36.45C70.8059 38.8 72.1059 40.8417 73.7893 42.575V42.925H70.2643ZM78.998 28.35C77.3314 27.4833 76.498 26.1417 76.498 24.325C76.498 23.425 76.723 22.6083 77.173 21.875C77.6397 21.125 78.3314 20.5333 79.248 20.1C80.1814 19.65 81.3147 19.425 82.648 19.425C83.9814 19.425 85.1064 19.65 86.023 20.1C86.9564 20.5333 87.648 21.125 88.098 21.875C88.5647 22.6083 88.798 23.425 88.798 24.325C88.798 25.2417 88.573 26.05 88.123 26.75C87.673 27.4333 87.073 27.9667 86.323 28.35C87.2397 28.75 87.9564 29.3333 88.473 30.1C88.9897 30.8667 89.248 31.775 89.248 32.825C89.248 33.9583 88.9564 34.95 88.373 35.8C87.8064 36.6333 87.023 37.275 86.023 37.725C85.023 38.175 83.898 38.4 82.648 38.4C81.398 38.4 80.273 38.175 79.273 37.725C78.2897 37.275 77.5064 36.6333 76.923 35.8C76.3564 34.95 76.073 33.9583 76.073 32.825C76.073 31.775 76.3314 30.8667 76.848 30.1C77.3647 29.3167 78.0814 28.7333 78.998 28.35ZM85.398 24.825C85.398 24.0083 85.148 23.375 84.648 22.925C84.1647 22.475 83.498 22.25 82.648 22.25C81.8147 22.25 81.148 22.475 80.648 22.925C80.1647 23.375 79.923 24.0167 79.923 24.85C79.923 25.6 80.173 26.2 80.673 26.65C81.1897 27.1 81.848 27.325 82.648 27.325C83.448 27.325 84.1064 27.1 84.623 26.65C85.1397 26.1833 85.398 25.575 85.398 24.825ZM82.648 29.875C81.698 29.875 80.923 30.1167 80.323 30.6C79.7397 31.0833 79.448 31.775 79.448 32.675C79.448 33.5083 79.7314 34.1917 80.298 34.725C80.8814 35.2417 81.6647 35.5 82.648 35.5C83.6314 35.5 84.4064 35.2333 84.973 34.7C85.5397 34.1667 85.823 33.4917 85.823 32.675C85.823 31.7917 85.5314 31.1083 84.948 30.625C84.3647 30.125 83.598 29.875 82.648 29.875ZM104.263 22.8H96.1625V27.075C96.5125 26.6417 97.0125 26.2917 97.6625 26.025C98.3125 25.7417 99.0042 25.6 99.7375 25.6C101.071 25.6 102.163 25.8917 103.013 26.475C103.863 27.0583 104.479 27.8083 104.863 28.725C105.246 29.625 105.438 30.5917 105.438 31.625C105.438 33.5417 104.888 35.0833 103.788 36.25C102.704 37.4167 101.154 38 99.1375 38C97.2375 38 95.7208 37.525 94.5875 36.575C93.4542 35.625 92.8125 34.3833 92.6625 32.85H96.0625C96.2125 33.5167 96.5458 34.05 97.0625 34.45C97.5958 34.85 98.2708 35.05 99.0875 35.05C100.071 35.05 100.813 34.7417 101.313 34.125C101.813 33.5083 102.063 32.6917 102.063 31.675C102.063 30.6417 101.804 29.8583 101.288 29.325C100.788 28.775 100.046 28.5 99.0625 28.5C98.3625 28.5 97.7792 28.675 97.3125 29.025C96.8458 29.375 96.5125 29.8417 96.3125 30.425H92.9625V19.725H104.263V22.8ZM120.351 22.8H112.251V27.075C112.601 26.6417 113.101 26.2917 113.751 26.025C114.401 25.7417 115.093 25.6 115.826 25.6C117.16 25.6 118.251 25.8917 119.101 26.475C119.951 27.0583 120.568 27.8083 120.951 28.725C121.335 29.625 121.526 30.5917 121.526 31.625C121.526 33.5417 120.976 35.0833 119.876 36.25C118.793 37.4167 117.243 38 115.226 38C113.326 38 111.81 37.525 110.676 36.575C109.543 35.625 108.901 34.3833 108.751 32.85H112.151C112.301 33.5167 112.635 34.05 113.151 34.45C113.685 34.85 114.36 35.05 115.176 35.05C116.16 35.05 116.901 34.7417 117.401 34.125C117.901 33.5083 118.151 32.6917 118.151 31.675C118.151 30.6417 117.893 29.8583 117.376 29.325C116.876 28.775 116.135 28.5 115.151 28.5C114.451 28.5 113.868 28.675 113.401 29.025C112.935 29.375 112.601 29.8417 112.401 30.425H109.051V19.725H120.351V22.8ZM123.69 42.925V42.575C125.374 40.8417 126.665 38.8 127.565 36.45C128.482 34.0833 128.94 31.6333 128.94 29.1C128.94 26.5 128.457 23.975 127.49 21.525C126.54 19.075 125.149 16.975 123.315 15.225V14.9H126.84C128.624 16.5 129.982 18.5583 130.915 21.075C131.849 23.575 132.315 26.25 132.315 29.1C132.315 31.8833 131.865 34.4917 130.965 36.925C130.082 39.3583 128.832 41.3583 127.215 42.925H123.69ZM154.531 22.8H146.431V27.075C146.781 26.6417 147.281 26.2917 147.931 26.025C148.581 25.7417 149.273 25.6 150.006 25.6C151.339 25.6 152.431 25.8917 153.281 26.475C154.131 27.0583 154.748 27.8083 155.131 28.725C155.514 29.625 155.706 30.5917 155.706 31.625C155.706 33.5417 155.156 35.0833 154.056 36.25C152.973 37.4167 151.423 38 149.406 38C147.506 38 145.989 37.525 144.856 36.575C143.723 35.625 143.081 34.3833 142.931 32.85H146.331C146.481 33.5167 146.814 34.05 147.331 34.45C147.864 34.85 148.539 35.05 149.356 35.05C150.339 35.05 151.081 34.7417 151.581 34.125C152.081 33.5083 152.331 32.6917 152.331 31.675C152.331 30.6417 152.073 29.8583 151.556 29.325C151.056 28.775 150.314 28.5 149.331 28.5C148.631 28.5 148.048 28.675 147.581 29.025C147.114 29.375 146.781 29.8417 146.581 30.425H143.231V19.725H154.531V22.8ZM161.42 28.35C159.753 27.4833 158.92 26.1417 158.92 24.325C158.92 23.425 159.145 22.6083 159.595 21.875C160.062 21.125 160.753 20.5333 161.67 20.1C162.603 19.65 163.737 19.425 165.07 19.425C166.403 19.425 167.528 19.65 168.445 20.1C169.378 20.5333 170.07 21.125 170.52 21.875C170.987 22.6083 171.22 23.425 171.22 24.325C171.22 25.2417 170.995 26.05 170.545 26.75C170.095 27.4333 169.495 27.9667 168.745 28.35C169.662 28.75 170.378 29.3333 170.895 30.1C171.412 30.8667 171.67 31.775 171.67 32.825C171.67 33.9583 171.378 34.95 170.795 35.8C170.228 36.6333 169.445 37.275 168.445 37.725C167.445 38.175 166.32 38.4 165.07 38.4C163.82 38.4 162.695 38.175 161.695 37.725C160.712 37.275 159.928 36.6333 159.345 35.8C158.778 34.95 158.495 33.9583 158.495 32.825C158.495 31.775 158.753 30.8667 159.27 30.1C159.787 29.3167 160.503 28.7333 161.42 28.35ZM167.82 24.825C167.82 24.0083 167.57 23.375 167.07 22.925C166.587 22.475 165.92 22.25 165.07 22.25C164.237 22.25 163.57 22.475 163.07 22.925C162.587 23.375 162.345 24.0167 162.345 24.85C162.345 25.6 162.595 26.2 163.095 26.65C163.612 27.1 164.27 27.325 165.07 27.325C165.87 27.325 166.528 27.1 167.045 26.65C167.562 26.1833 167.82 25.575 167.82 24.825ZM165.07 29.875C164.12 29.875 163.345 30.1167 162.745 30.6C162.162 31.0833 161.87 31.775 161.87 32.675C161.87 33.5083 162.153 34.1917 162.72 34.725C163.303 35.2417 164.087 35.5 165.07 35.5C166.053 35.5 166.828 35.2333 167.395 34.7C167.962 34.1667 168.245 33.4917 168.245 32.675C168.245 31.7917 167.953 31.1083 167.37 30.625C166.787 30.125 166.02 29.875 165.07 29.875ZM186.684 22.8H178.584V27.075C178.934 26.6417 179.434 26.2917 180.084 26.025C180.734 25.7417 181.426 25.6 182.159 25.6C183.493 25.6 184.584 25.8917 185.434 26.475C186.284 27.0583 186.901 27.8083 187.284 28.725C187.668 29.625 187.859 30.5917 187.859 31.625C187.859 33.5417 187.309 35.0833 186.209 36.25C185.126 37.4167 183.576 38 181.559 38C179.659 38 178.143 37.525 177.009 36.575C175.876 35.625 175.234 34.3833 175.084 32.85H178.484C178.634 33.5167 178.968 34.05 179.484 34.45C180.018 34.85 180.693 35.05 181.509 35.05C182.493 35.05 183.234 34.7417 183.734 34.125C184.234 33.5083 184.484 32.6917 184.484 31.675C184.484 30.6417 184.226 29.8583 183.709 29.325C183.209 28.775 182.468 28.5 181.484 28.5C180.784 28.5 180.201 28.675 179.734 29.025C179.268 29.375 178.934 29.8417 178.734 30.425H175.384V19.725H186.684V22.8ZM201.573 27.6V30.55H190.973V27.6H201.573ZM204.673 23V19.775H210.698V38H207.098V23H204.673ZM218.206 32.875C218.339 33.6083 218.639 34.175 219.106 34.575C219.589 34.9583 220.231 35.15 221.031 35.15C222.064 35.15 222.814 34.725 223.281 33.875C223.748 33.0083 223.981 31.5583 223.981 29.525C223.598 30.0583 223.056 30.475 222.356 30.775C221.673 31.075 220.931 31.225 220.131 31.225C219.064 31.225 218.098 31.0083 217.231 30.575C216.381 30.125 215.706 29.4667 215.206 28.6C214.706 27.7167 214.456 26.65 214.456 25.4C214.456 23.55 215.006 22.0833 216.106 21C217.206 19.9 218.706 19.35 220.606 19.35C222.973 19.35 224.639 20.1083 225.606 21.625C226.589 23.1417 227.081 25.425 227.081 28.475C227.081 30.6417 226.889 32.4167 226.506 33.8C226.139 35.1833 225.498 36.2333 224.581 36.95C223.681 37.6667 222.448 38.025 220.881 38.025C219.648 38.025 218.598 37.7917 217.731 37.325C216.864 36.8417 216.198 36.2167 215.731 35.45C215.281 34.6667 215.023 33.8083 214.956 32.875H218.206ZM220.856 28.375C221.723 28.375 222.406 28.1083 222.906 27.575C223.406 27.0417 223.656 26.325 223.656 25.425C223.656 24.4417 223.389 23.6833 222.856 23.15C222.339 22.6 221.631 22.325 220.731 22.325C219.831 22.325 219.114 22.6083 218.581 23.175C218.064 23.725 217.806 24.4583 217.806 25.375C217.806 26.2583 218.056 26.9833 218.556 27.55C219.073 28.1 219.839 28.375 220.856 28.375ZM229.855 24.575C229.939 22.9083 230.522 21.625 231.605 20.725C232.705 19.8083 234.147 19.35 235.93 19.35C237.147 19.35 238.189 19.5667 239.055 20C239.922 20.4167 240.572 20.9917 241.005 21.725C241.455 22.4417 241.68 23.2583 241.68 24.175C241.68 25.225 241.405 26.1167 240.855 26.85C240.322 27.5667 239.68 28.05 238.93 28.3V28.4C239.897 28.7 240.647 29.2333 241.18 30C241.73 30.7667 242.005 31.75 242.005 32.95C242.005 33.95 241.772 34.8417 241.305 35.625C240.855 36.4083 240.18 37.025 239.28 37.475C238.397 37.9083 237.33 38.125 236.08 38.125C234.197 38.125 232.664 37.65 231.48 36.7C230.297 35.75 229.672 34.35 229.605 32.5H233.005C233.039 33.3167 233.314 33.975 233.83 34.475C234.364 34.9583 235.089 35.2 236.005 35.2C236.855 35.2 237.505 34.9667 237.955 34.5C238.422 34.0167 238.655 33.4 238.655 32.65C238.655 31.65 238.339 30.9333 237.705 30.5C237.072 30.0667 236.089 29.85 234.755 29.85H234.03V26.975H234.755C237.122 26.975 238.305 26.1833 238.305 24.6C238.305 23.8833 238.089 23.325 237.655 22.925C237.239 22.525 236.63 22.325 235.83 22.325C235.047 22.325 234.439 22.5417 234.005 22.975C233.589 23.3917 233.347 23.925 233.28 24.575H229.855ZM247.821 28.35C246.155 27.4833 245.321 26.1417 245.321 24.325C245.321 23.425 245.546 22.6083 245.996 21.875C246.463 21.125 247.155 20.5333 248.071 20.1C249.005 19.65 250.138 19.425 251.471 19.425C252.805 19.425 253.93 19.65 254.846 20.1C255.78 20.5333 256.471 21.125 256.921 21.875C257.388 22.6083 257.621 23.425 257.621 24.325C257.621 25.2417 257.396 26.05 256.946 26.75C256.496 27.4333 255.896 27.9667 255.146 28.35C256.063 28.75 256.78 29.3333 257.296 30.1C257.813 30.8667 258.071 31.775 258.071 32.825C258.071 33.9583 257.78 34.95 257.196 35.8C256.63 36.6333 255.846 37.275 254.846 37.725C253.846 38.175 252.721 38.4 251.471 38.4C250.221 38.4 249.096 38.175 248.096 37.725C247.113 37.275 246.33 36.6333 245.746 35.8C245.18 34.95 244.896 33.9583 244.896 32.825C244.896 31.775 245.155 30.8667 245.671 30.1C246.188 29.3167 246.905 28.7333 247.821 28.35ZM254.221 24.825C254.221 24.0083 253.971 23.375 253.471 22.925C252.988 22.475 252.321 22.25 251.471 22.25C250.638 22.25 249.971 22.475 249.471 22.925C248.988 23.375 248.746 24.0167 248.746 24.85C248.746 25.6 248.996 26.2 249.496 26.65C250.013 27.1 250.671 27.325 251.471 27.325C252.271 27.325 252.93 27.1 253.446 26.65C253.963 26.1833 254.221 25.575 254.221 24.825ZM251.471 29.875C250.521 29.875 249.746 30.1167 249.146 30.6C248.563 31.0833 248.271 31.775 248.271 32.675C248.271 33.5083 248.555 34.1917 249.121 34.725C249.705 35.2417 250.488 35.5 251.471 35.5C252.455 35.5 253.23 35.2333 253.796 34.7C254.363 34.1667 254.646 33.4917 254.646 32.675C254.646 31.7917 254.355 31.1083 253.771 30.625C253.188 30.125 252.421 29.875 251.471 29.875Z" fill="#146D70"/>
<path d="M33.3015 32.103C35.263 34.0714 37.6363 35.5911 40.2549 36.5555L43.7974 33.7668C43.9024 33.6953 44.0269 33.657 44.1544 33.657C44.2819 33.657 44.4065 33.6953 44.5115 33.7668L51.089 37.9591C51.3387 38.1076 51.5501 38.3115 51.7065 38.5547C51.8628 38.7979 51.9599 39.0738 51.99 39.3605C52.02 39.6471 51.9823 39.9368 51.8798 40.2066C51.7772 40.4764 51.6127 40.7189 51.3991 40.915L48.3171 43.9267C47.8757 44.3581 47.3332 44.6747 46.738 44.8483C46.1429 45.0218 45.5135 45.0469 44.9061 44.9213C38.8475 43.6835 33.2631 40.7844 28.7912 36.5555C24.4185 32.2844 21.3926 26.85 20.0806 20.9113C19.951 20.3198 19.9781 19.7052 20.1591 19.127C20.3402 18.5489 20.6692 18.0268 21.1142 17.6114L24.309 14.5625C24.5067 14.3616 24.7478 14.2074 25.0143 14.1117C25.2807 14.016 25.5656 13.9811 25.8476 14.0097C26.1296 14.0383 26.4014 14.1297 26.6427 14.2769C26.8839 14.4242 27.0884 14.6235 27.2407 14.86L31.6195 21.2831C31.695 21.384 31.7358 21.5062 31.7358 21.6317C31.7358 21.7572 31.695 21.8794 31.6195 21.9803L28.7348 25.4103C29.736 27.9488 31.296 30.235 33.3015 32.103Z" fill="#146D70"/>
</svg>
