<svg width="290" height="58" viewBox="0 0 290 58" fill="none" xmlns="http://www.w3.org/2000/svg">
<g filter="url(#filter0_ii_611_185)">
<rect width="290" height="58" rx="15" fill="#269E96"/>
<path d="M82.02 29.25C82.02 27.5333 82.4034 26 83.17 24.65C83.9534 23.2833 85.0117 22.225 86.345 21.475C87.695 20.7083 89.2034 20.325 90.87 20.325C92.82 20.325 94.5284 20.825 95.995 21.825C97.4617 22.825 98.4867 24.2083 99.07 25.975H95.045C94.645 25.1417 94.0784 24.5167 93.345 24.1C92.6284 23.6833 91.795 23.475 90.845 23.475C89.8284 23.475 88.92 23.7167 88.12 24.2C87.3367 24.6667 86.72 25.3333 86.27 26.2C85.8367 27.0667 85.62 28.0833 85.62 29.25C85.62 30.4 85.8367 31.4167 86.27 32.3C86.72 33.1667 87.3367 33.8417 88.12 34.325C88.92 34.7917 89.8284 35.025 90.845 35.025C91.795 35.025 92.6284 34.8167 93.345 34.4C94.0784 33.9667 94.645 33.3333 95.045 32.5H99.07C98.4867 34.2833 97.4617 35.675 95.995 36.675C94.545 37.6583 92.8367 38.15 90.87 38.15C89.2034 38.15 87.695 37.775 86.345 37.025C85.0117 36.2583 83.9534 35.2 83.17 33.85C82.4034 32.5 82.02 30.9667 82.02 29.25ZM110.159 38.175C108.526 38.175 107.026 37.7917 105.659 37.025C104.293 36.2583 103.209 35.2 102.409 33.85C101.609 32.4833 101.209 30.9417 101.209 29.225C101.209 27.525 101.609 26 102.409 24.65C103.209 23.2833 104.293 22.2167 105.659 21.45C107.026 20.6833 108.526 20.3 110.159 20.3C111.809 20.3 113.309 20.6833 114.659 21.45C116.026 22.2167 117.101 23.2833 117.884 24.65C118.684 26 119.084 27.525 119.084 29.225C119.084 30.9417 118.684 32.4833 117.884 33.85C117.101 35.2 116.026 36.2583 114.659 37.025C113.293 37.7917 111.793 38.175 110.159 38.175ZM110.159 35.05C111.209 35.05 112.134 34.8167 112.934 34.35C113.734 33.8667 114.359 33.1833 114.809 32.3C115.259 31.4167 115.484 30.3917 115.484 29.225C115.484 28.0583 115.259 27.0417 114.809 26.175C114.359 25.2917 113.734 24.6167 112.934 24.15C112.134 23.6833 111.209 23.45 110.159 23.45C109.109 23.45 108.176 23.6833 107.359 24.15C106.559 24.6167 105.934 25.2917 105.484 26.175C105.034 27.0417 104.809 28.0583 104.809 29.225C104.809 30.3917 105.034 31.4167 105.484 32.3C105.934 33.1833 106.559 33.8667 107.359 34.35C108.176 34.8167 109.109 35.05 110.159 35.05ZM136.613 38H133.113L125.188 26.025V38H121.688V20.525H125.188L133.113 32.525V20.525H136.613V38ZM151.947 20.55V23.375H147.297V38H143.797V23.375H139.147V20.55H151.947ZM158.001 20.55V38H154.501V20.55H158.001ZM176.384 38H172.884L164.959 26.025V38H161.459V20.525H164.959L172.884 32.525V20.525H176.384V38ZM183.293 20.55V31.35C183.293 32.5333 183.601 33.4417 184.218 34.075C184.834 34.6917 185.701 35 186.818 35C187.951 35 188.826 34.6917 189.443 34.075C190.059 33.4417 190.368 32.5333 190.368 31.35V20.55H193.893V31.325C193.893 32.8083 193.568 34.0667 192.918 35.1C192.284 36.1167 191.426 36.8833 190.343 37.4C189.276 37.9167 188.084 38.175 186.768 38.175C185.468 38.175 184.284 37.9167 183.218 37.4C182.168 36.8833 181.334 36.1167 180.718 35.1C180.101 34.0667 179.793 32.8083 179.793 31.325V20.55H183.293ZM200.774 23.375V27.75H206.649V30.525H200.774V35.15H207.399V38H197.274V20.525H207.399V23.375H200.774Z" fill="white"/>
</g>
<defs>
<filter id="filter0_ii_611_185" x="-2" y="-2" width="296" height="64" filterUnits="userSpaceOnUse" color-interpolation-filters="sRGB">
<feFlood flood-opacity="0" result="BackgroundImageFix"/>
<feBlend mode="normal" in="SourceGraphic" in2="BackgroundImageFix" result="shape"/>
<feColorMatrix in="SourceAlpha" type="matrix" values="0 0 0 0 0 0 0 0 0 0 0 0 0 0 0 0 0 0 127 0" result="hardAlpha"/>
<feOffset dx="4" dy="4"/>
<feGaussianBlur stdDeviation="2"/>
<feComposite in2="hardAlpha" operator="arithmetic" k2="-1" k3="1"/>
<feColorMatrix type="matrix" values="0 0 0 0 1 0 0 0 0 1 0 0 0 0 1 0 0 0 0.25 0"/>
<feBlend mode="normal" in2="shape" result="effect1_innerShadow_611_185"/>
<feColorMatrix in="SourceAlpha" type="matrix" values="0 0 0 0 0 0 0 0 0 0 0 0 0 0 0 0 0 0 127 0" result="hardAlpha"/>
<feOffset dx="-2" dy="-2"/>
<feGaussianBlur stdDeviation="2"/>
<feComposite in2="hardAlpha" operator="arithmetic" k2="-1" k3="1"/>
<feColorMatrix type="matrix" values="0 0 0 0 0 0 0 0 0 0 0 0 0 0 0 0 0 0 0.25 0"/>
<feBlend mode="normal" in2="effect1_innerShadow_611_185" result="effect2_innerShadow_611_185"/>
</filter>
</defs>
</svg>
