<svg width="30" height="30" viewBox="0 0 30 30" fill="none" xmlns="http://www.w3.org/2000/svg">
<circle cx="15" cy="15" r="14" stroke="#146D70" stroke-width="2"/>
<path d="M21.202 8.44635C21.5131 8.15689 21.927 7.99687 22.3565 8.00005C22.7859 8.00322 23.1973 8.16935 23.5038 8.46337C23.8104 8.7574 23.9881 9.15632 23.9994 9.57596C24.0108 9.9956 23.8549 10.4031 23.5647 10.7126L14.7544 21.4826C14.6029 21.6421 14.4201 21.7701 14.2168 21.859C14.0136 21.9478 13.7941 21.9957 13.5714 21.9997C13.3488 22.0038 13.1277 21.9639 12.9212 21.8824C12.7147 21.801 12.5271 21.6797 12.3697 21.5258L6.52709 15.8149C6.36438 15.6667 6.23388 15.488 6.14337 15.2894C6.05285 15.0908 6.00418 14.8765 6.00026 14.6591C5.99633 14.4418 6.03724 14.2259 6.12053 14.0243C6.20382 13.8228 6.32779 13.6397 6.48505 13.486C6.64231 13.3322 6.82963 13.2111 7.03584 13.1297C7.24205 13.0482 7.46292 13.0083 7.68528 13.0121C7.90764 13.0159 8.12693 13.0635 8.33008 13.152C8.53322 13.2404 8.71605 13.368 8.86766 13.527L13.4914 18.0444L21.1601 8.49383C21.1739 8.47721 21.1886 8.46136 21.2042 8.44635H21.202Z" fill="#146D70"/>
</svg>
